<mxfile host="65bd71144e">
    <diagram id="R2lEEEUBdFMjLlhIrx00" name="Page-1">
        <mxGraphModel dx="2703" dy="2252" grid="1" gridSize="10" guides="1" tooltips="1" connect="1" arrows="1" fold="1" page="1" pageScale="1" pageWidth="850" pageHeight="1100" math="0" shadow="0" extFonts="Permanent Marker^https://fonts.googleapis.com/css?family=Permanent+Marker">
            <root>
                <mxCell id="0"/>
                <mxCell id="1" parent="0"/>
                <mxCell id="bSjY6kH0Yjt8PTvNk5gp-2" value="Genres" style="whiteSpace=wrap;html=1;align=center;" parent="1" vertex="1">
                    <mxGeometry x="80" y="200" width="100" height="40" as="geometry"/>
                </mxCell>
                <mxCell id="bSjY6kH0Yjt8PTvNk5gp-4" value="Authors" style="whiteSpace=wrap;html=1;align=center;" parent="1" vertex="1">
                    <mxGeometry x="420" y="200" width="100" height="40" as="geometry"/>
                </mxCell>
                <mxCell id="bSjY6kH0Yjt8PTvNk5gp-5" value="Librarians" style="whiteSpace=wrap;html=1;align=center;" parent="1" vertex="1">
                    <mxGeometry x="730" y="170" width="100" height="40" as="geometry"/>
                </mxCell>
                <mxCell id="bSjY6kH0Yjt8PTvNk5gp-6" value="Books" style="whiteSpace=wrap;html=1;align=center;" parent="1" vertex="1">
                    <mxGeometry x="240" y="390" width="100" height="40" as="geometry"/>
                </mxCell>
                <mxCell id="bSjY6kH0Yjt8PTvNk5gp-7" value="Borrowers" style="whiteSpace=wrap;html=1;align=center;" parent="1" vertex="1">
                    <mxGeometry x="-190" y="640.67" width="100" height="40" as="geometry"/>
                </mxCell>
                <mxCell id="bSjY6kH0Yjt8PTvNk5gp-148" value="" style="edgeStyle=none;rounded=0;orthogonalLoop=1;jettySize=auto;html=1;endArrow=none;endFill=0;" parent="1" source="bSjY6kH0Yjt8PTvNk5gp-8" target="bSjY6kH0Yjt8PTvNk5gp-142" edge="1">
                    <mxGeometry relative="1" as="geometry"/>
                </mxCell>
                <mxCell id="bSjY6kH0Yjt8PTvNk5gp-162" style="edgeStyle=none;rounded=0;orthogonalLoop=1;jettySize=auto;html=1;exitX=1;exitY=0;exitDx=0;exitDy=0;entryX=0;entryY=0.5;entryDx=0;entryDy=0;endArrow=none;endFill=0;" parent="1" source="bSjY6kH0Yjt8PTvNk5gp-8" target="bSjY6kH0Yjt8PTvNk5gp-161" edge="1">
                    <mxGeometry relative="1" as="geometry"/>
                </mxCell>
                <mxCell id="bSjY6kH0Yjt8PTvNk5gp-8" value="Library_Branches" style="whiteSpace=wrap;html=1;align=center;" parent="1" vertex="1">
                    <mxGeometry x="730" y="400" width="100" height="40" as="geometry"/>
                </mxCell>
                <mxCell id="bSjY6kH0Yjt8PTvNk5gp-45" style="edgeStyle=none;rounded=0;orthogonalLoop=1;jettySize=auto;html=1;exitX=1;exitY=0.75;exitDx=0;exitDy=0;endArrow=none;endFill=0;" parent="1" source="bSjY6kH0Yjt8PTvNk5gp-9" target="bSjY6kH0Yjt8PTvNk5gp-44" edge="1">
                    <mxGeometry relative="1" as="geometry"/>
                </mxCell>
                <mxCell id="bSjY6kH0Yjt8PTvNk5gp-46" style="edgeStyle=none;rounded=0;orthogonalLoop=1;jettySize=auto;html=1;exitX=1;exitY=0.25;exitDx=0;exitDy=0;entryX=0.058;entryY=0.694;entryDx=0;entryDy=0;entryPerimeter=0;endArrow=none;endFill=0;" parent="1" source="bSjY6kH0Yjt8PTvNk5gp-9" target="bSjY6kH0Yjt8PTvNk5gp-43" edge="1">
                    <mxGeometry relative="1" as="geometry"/>
                </mxCell>
                <mxCell id="bSjY6kH0Yjt8PTvNk5gp-9" value="Loans" style="whiteSpace=wrap;html=1;align=center;" parent="1" vertex="1">
                    <mxGeometry x="240" y="633.67" width="100" height="40" as="geometry"/>
                </mxCell>
                <mxCell id="bSjY6kH0Yjt8PTvNk5gp-10" value="Reservations" style="whiteSpace=wrap;html=1;align=center;" parent="1" vertex="1">
                    <mxGeometry x="-190" y="400" width="100" height="40" as="geometry"/>
                </mxCell>
                <mxCell id="bSjY6kH0Yjt8PTvNk5gp-21" value="" style="edgeStyle=orthogonalEdgeStyle;rounded=0;orthogonalLoop=1;jettySize=auto;html=1;endArrow=none;endFill=0;" parent="1" source="bSjY6kH0Yjt8PTvNk5gp-11" target="bSjY6kH0Yjt8PTvNk5gp-20" edge="1">
                    <mxGeometry relative="1" as="geometry"/>
                </mxCell>
                <mxCell id="bSjY6kH0Yjt8PTvNk5gp-22" style="rounded=0;orthogonalLoop=1;jettySize=auto;html=1;exitX=0.25;exitY=1;exitDx=0;exitDy=0;endArrow=none;endFill=0;" parent="1" source="bSjY6kH0Yjt8PTvNk5gp-11" target="bSjY6kH0Yjt8PTvNk5gp-18" edge="1">
                    <mxGeometry relative="1" as="geometry"/>
                </mxCell>
                <mxCell id="bSjY6kH0Yjt8PTvNk5gp-23" style="edgeStyle=none;rounded=0;orthogonalLoop=1;jettySize=auto;html=1;exitX=0.75;exitY=1;exitDx=0;exitDy=0;entryX=0.411;entryY=0.013;entryDx=0;entryDy=0;entryPerimeter=0;endArrow=none;endFill=0;" parent="1" source="bSjY6kH0Yjt8PTvNk5gp-11" target="bSjY6kH0Yjt8PTvNk5gp-19" edge="1">
                    <mxGeometry relative="1" as="geometry"/>
                </mxCell>
                <mxCell id="bSjY6kH0Yjt8PTvNk5gp-40" style="edgeStyle=none;rounded=0;orthogonalLoop=1;jettySize=auto;html=1;exitX=1;exitY=0.5;exitDx=0;exitDy=0;entryX=0;entryY=0.5;entryDx=0;entryDy=0;endArrow=none;endFill=0;" parent="1" source="bSjY6kH0Yjt8PTvNk5gp-11" target="bSjY6kH0Yjt8PTvNk5gp-39" edge="1">
                    <mxGeometry relative="1" as="geometry"/>
                </mxCell>
                <mxCell id="bSjY6kH0Yjt8PTvNk5gp-11" value="Fines" style="whiteSpace=wrap;html=1;align=center;" parent="1" vertex="1">
                    <mxGeometry x="240" y="783.67" width="100" height="40" as="geometry"/>
                </mxCell>
                <mxCell id="bSjY6kH0Yjt8PTvNk5gp-13" value="" style="endArrow=none;html=1;rounded=0;exitX=0.5;exitY=1;exitDx=0;exitDy=0;entryX=0.5;entryY=0;entryDx=0;entryDy=0;" parent="1" source="bSjY6kH0Yjt8PTvNk5gp-9" target="bSjY6kH0Yjt8PTvNk5gp-11" edge="1">
                    <mxGeometry relative="1" as="geometry">
                        <mxPoint x="340" y="693.67" as="sourcePoint"/>
                        <mxPoint x="500" y="693.67" as="targetPoint"/>
                    </mxGeometry>
                </mxCell>
                <mxCell id="bSjY6kH0Yjt8PTvNk5gp-15" value="0...N" style="resizable=0;html=1;align=right;verticalAlign=bottom;" parent="bSjY6kH0Yjt8PTvNk5gp-13" connectable="0" vertex="1">
                    <mxGeometry x="1" relative="1" as="geometry">
                        <mxPoint x="30" as="offset"/>
                    </mxGeometry>
                </mxCell>
                <mxCell id="bSjY6kH0Yjt8PTvNk5gp-16" value="credit" style="shape=rhombus;perimeter=rhombusPerimeter;whiteSpace=wrap;html=1;align=center;" parent="1" vertex="1">
                    <mxGeometry x="230" y="693.67" width="120" height="60" as="geometry"/>
                </mxCell>
                <mxCell id="bSjY6kH0Yjt8PTvNk5gp-18" value="Amount" style="ellipse;whiteSpace=wrap;html=1;align=center;" parent="1" vertex="1">
                    <mxGeometry x="170" y="853.67" width="100" height="40" as="geometry"/>
                </mxCell>
                <mxCell id="bSjY6kH0Yjt8PTvNk5gp-19" value="Paid" style="ellipse;whiteSpace=wrap;html=1;align=center;" parent="1" vertex="1">
                    <mxGeometry x="310" y="853.67" width="100" height="40" as="geometry"/>
                </mxCell>
                <mxCell id="bSjY6kH0Yjt8PTvNk5gp-33" value="" style="endArrow=none;html=1;rounded=0;exitX=0.5;exitY=1;exitDx=0;exitDy=0;entryX=0.5;entryY=0;entryDx=0;entryDy=0;startArrow=none;" parent="1" source="Q7LSnnGv4zC_KHV4gUv7-25" target="bSjY6kH0Yjt8PTvNk5gp-9" edge="1">
                    <mxGeometry relative="1" as="geometry">
                        <mxPoint x="289.66000000000025" y="450" as="sourcePoint"/>
                        <mxPoint x="289.66000000000025" y="560" as="targetPoint"/>
                    </mxGeometry>
                </mxCell>
                <mxCell id="bSjY6kH0Yjt8PTvNk5gp-34" value="0...N" style="resizable=0;html=1;align=right;verticalAlign=bottom;" parent="bSjY6kH0Yjt8PTvNk5gp-33" connectable="0" vertex="1">
                    <mxGeometry x="1" relative="1" as="geometry">
                        <mxPoint x="30" as="offset"/>
                    </mxGeometry>
                </mxCell>
                <mxCell id="bSjY6kH0Yjt8PTvNk5gp-20" value="Fine_ID" style="ellipse;whiteSpace=wrap;html=1;align=center;fontStyle=4" parent="1" vertex="1">
                    <mxGeometry x="100" y="783.67" width="100" height="40" as="geometry"/>
                </mxCell>
                <mxCell id="bSjY6kH0Yjt8PTvNk5gp-36" value="1" style="resizable=0;html=1;align=right;verticalAlign=bottom;" parent="1" connectable="0" vertex="1">
                    <mxGeometry x="299.99909930915493" y="690.6743817937581" as="geometry"/>
                </mxCell>
                <mxCell id="bSjY6kH0Yjt8PTvNk5gp-37" value="1" style="resizable=0;html=1;align=right;verticalAlign=bottom;" parent="1" connectable="0" vertex="1">
                    <mxGeometry x="299.99909930915493" y="448.00438179375817" as="geometry"/>
                </mxCell>
                <mxCell id="bSjY6kH0Yjt8PTvNk5gp-54" style="edgeStyle=none;rounded=0;orthogonalLoop=1;jettySize=auto;html=1;exitX=0;exitY=1;exitDx=0;exitDy=0;entryX=1;entryY=0;entryDx=0;entryDy=0;endArrow=none;endFill=0;" parent="1" source="bSjY6kH0Yjt8PTvNk5gp-38" target="bSjY6kH0Yjt8PTvNk5gp-9" edge="1">
                    <mxGeometry relative="1" as="geometry"/>
                </mxCell>
                <mxCell id="bSjY6kH0Yjt8PTvNk5gp-38" value="Loan_ID" style="ellipse;whiteSpace=wrap;html=1;align=center;fontStyle=4" parent="1" vertex="1">
                    <mxGeometry x="375" y="553.67" width="100" height="40" as="geometry"/>
                </mxCell>
                <mxCell id="bSjY6kH0Yjt8PTvNk5gp-39" value="&lt;span style=&quot;border-bottom: 1px dotted&quot;&gt;Loan_ID&lt;/span&gt;" style="ellipse;whiteSpace=wrap;html=1;align=center;" parent="1" vertex="1">
                    <mxGeometry x="390" y="783.67" width="100" height="40" as="geometry"/>
                </mxCell>
                <mxCell id="bSjY6kH0Yjt8PTvNk5gp-43" value="Loan_date" style="ellipse;whiteSpace=wrap;html=1;align=center;" parent="1" vertex="1">
                    <mxGeometry x="375" y="603.67" width="100" height="40" as="geometry"/>
                </mxCell>
                <mxCell id="bSjY6kH0Yjt8PTvNk5gp-44" value="Due_date" style="ellipse;whiteSpace=wrap;html=1;align=center;" parent="1" vertex="1">
                    <mxGeometry x="375" y="663.67" width="100" height="40" as="geometry"/>
                </mxCell>
                <mxCell id="bSjY6kH0Yjt8PTvNk5gp-48" style="edgeStyle=none;rounded=0;orthogonalLoop=1;jettySize=auto;html=1;exitX=0;exitY=0;exitDx=0;exitDy=0;entryX=1;entryY=1;entryDx=0;entryDy=0;endArrow=none;endFill=0;" parent="1" source="bSjY6kH0Yjt8PTvNk5gp-47" target="bSjY6kH0Yjt8PTvNk5gp-9" edge="1">
                    <mxGeometry relative="1" as="geometry"/>
                </mxCell>
                <mxCell id="bSjY6kH0Yjt8PTvNk5gp-47" value="Returned_date" style="ellipse;whiteSpace=wrap;html=1;align=center;" parent="1" vertex="1">
                    <mxGeometry x="375" y="713.67" width="100" height="40" as="geometry"/>
                </mxCell>
                <mxCell id="bSjY6kH0Yjt8PTvNk5gp-51" style="edgeStyle=none;rounded=0;orthogonalLoop=1;jettySize=auto;html=1;exitX=1;exitY=0.5;exitDx=0;exitDy=0;entryX=0;entryY=0.5;entryDx=0;entryDy=0;endArrow=none;endFill=0;" parent="1" source="bSjY6kH0Yjt8PTvNk5gp-49" target="bSjY6kH0Yjt8PTvNk5gp-9" edge="1">
                    <mxGeometry relative="1" as="geometry"/>
                </mxCell>
                <mxCell id="bSjY6kH0Yjt8PTvNk5gp-49" value="&lt;span style=&quot;border-bottom: 1px dotted&quot;&gt;Book_ID&lt;/span&gt;" style="ellipse;whiteSpace=wrap;html=1;align=center;" parent="1" vertex="1">
                    <mxGeometry x="110" y="583.67" width="100" height="40" as="geometry"/>
                </mxCell>
                <mxCell id="bSjY6kH0Yjt8PTvNk5gp-52" style="edgeStyle=none;rounded=0;orthogonalLoop=1;jettySize=auto;html=1;exitX=1;exitY=0;exitDx=0;exitDy=0;entryX=0;entryY=1;entryDx=0;entryDy=0;endArrow=none;endFill=0;" parent="1" source="bSjY6kH0Yjt8PTvNk5gp-50" target="bSjY6kH0Yjt8PTvNk5gp-9" edge="1">
                    <mxGeometry relative="1" as="geometry"/>
                </mxCell>
                <mxCell id="bSjY6kH0Yjt8PTvNk5gp-50" value="&lt;span style=&quot;border-bottom: 1px dotted&quot;&gt;Borrower_ID&lt;/span&gt;" style="ellipse;whiteSpace=wrap;html=1;align=center;" parent="1" vertex="1">
                    <mxGeometry x="110" y="693.67" width="100" height="40" as="geometry"/>
                </mxCell>
                <mxCell id="bSjY6kH0Yjt8PTvNk5gp-55" value="" style="endArrow=none;html=1;rounded=0;entryX=-0.003;entryY=0.634;entryDx=0;entryDy=0;entryPerimeter=0;" parent="1" target="bSjY6kH0Yjt8PTvNk5gp-9" edge="1">
                    <mxGeometry relative="1" as="geometry">
                        <mxPoint x="-90" y="660.3299999999999" as="sourcePoint"/>
                        <mxPoint x="70" y="660.3299999999999" as="targetPoint"/>
                    </mxGeometry>
                </mxCell>
                <mxCell id="bSjY6kH0Yjt8PTvNk5gp-56" value="1" style="resizable=0;html=1;align=left;verticalAlign=bottom;" parent="bSjY6kH0Yjt8PTvNk5gp-55" connectable="0" vertex="1">
                    <mxGeometry x="-1" relative="1" as="geometry"/>
                </mxCell>
                <mxCell id="bSjY6kH0Yjt8PTvNk5gp-57" value="N" style="resizable=0;html=1;align=right;verticalAlign=bottom;" parent="bSjY6kH0Yjt8PTvNk5gp-55" connectable="0" vertex="1">
                    <mxGeometry x="1" relative="1" as="geometry">
                        <mxPoint x="-3" y="1" as="offset"/>
                    </mxGeometry>
                </mxCell>
                <mxCell id="bSjY6kH0Yjt8PTvNk5gp-53" value="has" style="shape=rhombus;perimeter=rhombusPerimeter;whiteSpace=wrap;html=1;align=center;" parent="1" vertex="1">
                    <mxGeometry x="20" y="629.67" width="120" height="60" as="geometry"/>
                </mxCell>
                <mxCell id="bSjY6kH0Yjt8PTvNk5gp-59" style="edgeStyle=none;rounded=0;orthogonalLoop=1;jettySize=auto;html=1;exitX=0;exitY=0;exitDx=0;exitDy=0;entryX=0.75;entryY=1;entryDx=0;entryDy=0;endArrow=none;endFill=0;" parent="1" source="bSjY6kH0Yjt8PTvNk5gp-58" target="bSjY6kH0Yjt8PTvNk5gp-7" edge="1">
                    <mxGeometry relative="1" as="geometry"/>
                </mxCell>
                <mxCell id="bSjY6kH0Yjt8PTvNk5gp-58" value="Borrower_ID" style="ellipse;whiteSpace=wrap;html=1;align=center;fontStyle=4" parent="1" vertex="1">
                    <mxGeometry x="-100" y="713.67" width="100" height="40" as="geometry"/>
                </mxCell>
                <mxCell id="bSjY6kH0Yjt8PTvNk5gp-61" style="edgeStyle=none;rounded=0;orthogonalLoop=1;jettySize=auto;html=1;exitX=0.5;exitY=0;exitDx=0;exitDy=0;entryX=0.5;entryY=1;entryDx=0;entryDy=0;endArrow=none;endFill=0;" parent="1" source="bSjY6kH0Yjt8PTvNk5gp-60" target="bSjY6kH0Yjt8PTvNk5gp-7" edge="1">
                    <mxGeometry relative="1" as="geometry"/>
                </mxCell>
                <mxCell id="bSjY6kH0Yjt8PTvNk5gp-60" value="First_name" style="ellipse;whiteSpace=wrap;html=1;align=center;" parent="1" vertex="1">
                    <mxGeometry x="-180" y="753.67" width="100" height="40" as="geometry"/>
                </mxCell>
                <mxCell id="bSjY6kH0Yjt8PTvNk5gp-63" style="edgeStyle=none;rounded=0;orthogonalLoop=1;jettySize=auto;html=1;exitX=1;exitY=0;exitDx=0;exitDy=0;entryX=0.201;entryY=1.01;entryDx=0;entryDy=0;entryPerimeter=0;endArrow=none;endFill=0;" parent="1" source="bSjY6kH0Yjt8PTvNk5gp-62" target="bSjY6kH0Yjt8PTvNk5gp-7" edge="1">
                    <mxGeometry relative="1" as="geometry"/>
                </mxCell>
                <mxCell id="bSjY6kH0Yjt8PTvNk5gp-62" value="Last_name" style="ellipse;whiteSpace=wrap;html=1;align=center;" parent="1" vertex="1">
                    <mxGeometry x="-290" y="733.67" width="100" height="40" as="geometry"/>
                </mxCell>
                <mxCell id="bSjY6kH0Yjt8PTvNk5gp-65" style="edgeStyle=none;rounded=0;orthogonalLoop=1;jettySize=auto;html=1;exitX=1;exitY=0;exitDx=0;exitDy=0;entryX=0;entryY=0.75;entryDx=0;entryDy=0;endArrow=none;endFill=0;" parent="1" source="bSjY6kH0Yjt8PTvNk5gp-64" target="bSjY6kH0Yjt8PTvNk5gp-7" edge="1">
                    <mxGeometry relative="1" as="geometry"/>
                </mxCell>
                <mxCell id="bSjY6kH0Yjt8PTvNk5gp-64" value="EMail" style="ellipse;whiteSpace=wrap;html=1;align=center;" parent="1" vertex="1">
                    <mxGeometry x="-350" y="689.67" width="100" height="40" as="geometry"/>
                </mxCell>
                <mxCell id="bSjY6kH0Yjt8PTvNk5gp-67" style="edgeStyle=none;rounded=0;orthogonalLoop=1;jettySize=auto;html=1;exitX=1;exitY=1;exitDx=0;exitDy=0;entryX=0;entryY=0.25;entryDx=0;entryDy=0;endArrow=none;endFill=0;" parent="1" source="bSjY6kH0Yjt8PTvNk5gp-66" target="bSjY6kH0Yjt8PTvNk5gp-7" edge="1">
                    <mxGeometry relative="1" as="geometry"/>
                </mxCell>
                <mxCell id="bSjY6kH0Yjt8PTvNk5gp-66" value="Phone" style="ellipse;whiteSpace=wrap;html=1;align=center;" parent="1" vertex="1">
                    <mxGeometry x="-350" y="563.67" width="100" height="40" as="geometry"/>
                </mxCell>
                <mxCell id="bSjY6kH0Yjt8PTvNk5gp-79" style="edgeStyle=none;rounded=0;orthogonalLoop=1;jettySize=auto;html=1;exitX=0;exitY=0.5;exitDx=0;exitDy=0;entryX=1;entryY=0.75;entryDx=0;entryDy=0;endArrow=none;endFill=0;" parent="1" source="bSjY6kH0Yjt8PTvNk5gp-74" target="bSjY6kH0Yjt8PTvNk5gp-4" edge="1">
                    <mxGeometry relative="1" as="geometry"/>
                </mxCell>
                <mxCell id="bSjY6kH0Yjt8PTvNk5gp-74" value="Author_ID" style="ellipse;whiteSpace=wrap;html=1;align=center;fontStyle=4" parent="1" vertex="1">
                    <mxGeometry x="560" y="240" width="100" height="40" as="geometry"/>
                </mxCell>
                <mxCell id="bSjY6kH0Yjt8PTvNk5gp-78" style="edgeStyle=none;rounded=0;orthogonalLoop=1;jettySize=auto;html=1;exitX=0;exitY=1;exitDx=0;exitDy=0;entryX=1;entryY=0.25;entryDx=0;entryDy=0;endArrow=none;endFill=0;" parent="1" source="bSjY6kH0Yjt8PTvNk5gp-75" target="bSjY6kH0Yjt8PTvNk5gp-4" edge="1">
                    <mxGeometry relative="1" as="geometry"/>
                </mxCell>
                <mxCell id="bSjY6kH0Yjt8PTvNk5gp-75" value="First_name" style="ellipse;whiteSpace=wrap;html=1;align=center;" parent="1" vertex="1">
                    <mxGeometry x="560" y="160" width="100" height="40" as="geometry"/>
                </mxCell>
                <mxCell id="bSjY6kH0Yjt8PTvNk5gp-77" style="edgeStyle=none;rounded=0;orthogonalLoop=1;jettySize=auto;html=1;exitX=0.5;exitY=1;exitDx=0;exitDy=0;entryX=0.5;entryY=0;entryDx=0;entryDy=0;endArrow=none;endFill=0;" parent="1" source="bSjY6kH0Yjt8PTvNk5gp-76" target="bSjY6kH0Yjt8PTvNk5gp-4" edge="1">
                    <mxGeometry relative="1" as="geometry"/>
                </mxCell>
                <mxCell id="bSjY6kH0Yjt8PTvNk5gp-76" value="Last_name" style="ellipse;whiteSpace=wrap;html=1;align=center;" parent="1" vertex="1">
                    <mxGeometry x="450" y="90" width="100" height="40" as="geometry"/>
                </mxCell>
                <mxCell id="bSjY6kH0Yjt8PTvNk5gp-80" value="writes" style="shape=rhombus;perimeter=rhombusPerimeter;whiteSpace=wrap;html=1;align=center;" parent="1" vertex="1">
                    <mxGeometry x="410" y="290" width="120" height="60" as="geometry"/>
                </mxCell>
                <mxCell id="bSjY6kH0Yjt8PTvNk5gp-86" style="edgeStyle=none;rounded=0;orthogonalLoop=1;jettySize=auto;html=1;exitX=0.5;exitY=1;exitDx=0;exitDy=0;entryX=0;entryY=0.25;entryDx=0;entryDy=0;endArrow=none;endFill=0;" parent="1" source="bSjY6kH0Yjt8PTvNk5gp-83" target="bSjY6kH0Yjt8PTvNk5gp-2" edge="1">
                    <mxGeometry relative="1" as="geometry"/>
                </mxCell>
                <mxCell id="bSjY6kH0Yjt8PTvNk5gp-83" value="Genre_ID" style="ellipse;whiteSpace=wrap;html=1;align=center;fontStyle=4" parent="1" vertex="1">
                    <mxGeometry x="-40" y="150" width="100" height="40" as="geometry"/>
                </mxCell>
                <mxCell id="bSjY6kH0Yjt8PTvNk5gp-85" style="rounded=0;orthogonalLoop=1;jettySize=auto;html=1;exitX=0.5;exitY=1;exitDx=0;exitDy=0;entryX=0.75;entryY=0;entryDx=0;entryDy=0;endArrow=none;endFill=0;" parent="1" source="bSjY6kH0Yjt8PTvNk5gp-84" target="bSjY6kH0Yjt8PTvNk5gp-2" edge="1">
                    <mxGeometry relative="1" as="geometry"/>
                </mxCell>
                <mxCell id="bSjY6kH0Yjt8PTvNk5gp-84" value="Name" style="ellipse;whiteSpace=wrap;html=1;align=center;" parent="1" vertex="1">
                    <mxGeometry x="70" y="120" width="100" height="40" as="geometry"/>
                </mxCell>
                <mxCell id="bSjY6kH0Yjt8PTvNk5gp-87" value="Has" style="shape=rhombus;perimeter=rhombusPerimeter;whiteSpace=wrap;html=1;align=center;" parent="1" vertex="1">
                    <mxGeometry x="70" y="290" width="120" height="60" as="geometry"/>
                </mxCell>
                <mxCell id="bSjY6kH0Yjt8PTvNk5gp-90" value="" style="endArrow=none;html=1;rounded=0;exitX=0.5;exitY=1;exitDx=0;exitDy=0;entryX=0;entryY=0.25;entryDx=0;entryDy=0;edgeStyle=orthogonalEdgeStyle;" parent="1" source="bSjY6kH0Yjt8PTvNk5gp-87" target="bSjY6kH0Yjt8PTvNk5gp-6" edge="1">
                    <mxGeometry relative="1" as="geometry">
                        <mxPoint x="100" y="430" as="sourcePoint"/>
                        <mxPoint x="260" y="430" as="targetPoint"/>
                    </mxGeometry>
                </mxCell>
                <mxCell id="bSjY6kH0Yjt8PTvNk5gp-91" value="N" style="resizable=0;html=1;align=right;verticalAlign=bottom;" parent="bSjY6kH0Yjt8PTvNk5gp-90" connectable="0" vertex="1">
                    <mxGeometry x="1" relative="1" as="geometry">
                        <mxPoint x="-1" as="offset"/>
                    </mxGeometry>
                </mxCell>
                <mxCell id="bSjY6kH0Yjt8PTvNk5gp-94" value="" style="endArrow=none;html=1;rounded=0;entryX=0.5;entryY=1;entryDx=0;entryDy=0;exitX=0.5;exitY=0;exitDx=0;exitDy=0;" parent="1" source="bSjY6kH0Yjt8PTvNk5gp-87" target="bSjY6kH0Yjt8PTvNk5gp-2" edge="1">
                    <mxGeometry relative="1" as="geometry">
                        <mxPoint x="-180" y="280" as="sourcePoint"/>
                        <mxPoint x="-20" y="280" as="targetPoint"/>
                    </mxGeometry>
                </mxCell>
                <mxCell id="bSjY6kH0Yjt8PTvNk5gp-95" value="1" style="resizable=0;html=1;align=right;verticalAlign=top;" parent="bSjY6kH0Yjt8PTvNk5gp-94" connectable="0" vertex="1">
                    <mxGeometry x="1" relative="1" as="geometry">
                        <mxPoint x="10" y="-6" as="offset"/>
                    </mxGeometry>
                </mxCell>
                <mxCell id="bSjY6kH0Yjt8PTvNk5gp-96" value="" style="endArrow=none;html=1;rounded=0;entryX=0.5;entryY=1;entryDx=0;entryDy=0;exitX=0.5;exitY=0;exitDx=0;exitDy=0;" parent="1" edge="1">
                    <mxGeometry relative="1" as="geometry">
                        <mxPoint x="469.65999999999997" y="290" as="sourcePoint"/>
                        <mxPoint x="469.65999999999997" y="240" as="targetPoint"/>
                    </mxGeometry>
                </mxCell>
                <mxCell id="bSjY6kH0Yjt8PTvNk5gp-97" value="1" style="resizable=0;html=1;align=right;verticalAlign=top;" parent="bSjY6kH0Yjt8PTvNk5gp-96" connectable="0" vertex="1">
                    <mxGeometry x="1" relative="1" as="geometry">
                        <mxPoint x="10" y="-6" as="offset"/>
                    </mxGeometry>
                </mxCell>
                <mxCell id="bSjY6kH0Yjt8PTvNk5gp-98" value="" style="endArrow=none;html=1;rounded=0;exitX=0.5;exitY=1;exitDx=0;exitDy=0;edgeStyle=orthogonalEdgeStyle;entryX=1;entryY=0.25;entryDx=0;entryDy=0;" parent="1" source="bSjY6kH0Yjt8PTvNk5gp-80" target="bSjY6kH0Yjt8PTvNk5gp-6" edge="1">
                    <mxGeometry relative="1" as="geometry">
                        <mxPoint x="500" y="430" as="sourcePoint"/>
                        <mxPoint x="430" y="380" as="targetPoint"/>
                    </mxGeometry>
                </mxCell>
                <mxCell id="bSjY6kH0Yjt8PTvNk5gp-99" value="N" style="resizable=0;html=1;align=right;verticalAlign=bottom;" parent="bSjY6kH0Yjt8PTvNk5gp-98" connectable="0" vertex="1">
                    <mxGeometry x="1" relative="1" as="geometry">
                        <mxPoint x="10" as="offset"/>
                    </mxGeometry>
                </mxCell>
                <mxCell id="bSjY6kH0Yjt8PTvNk5gp-101" value="has" style="shape=rhombus;perimeter=rhombusPerimeter;whiteSpace=wrap;html=1;align=center;" parent="1" vertex="1">
                    <mxGeometry x="20" y="390" width="120" height="60" as="geometry"/>
                </mxCell>
                <mxCell id="bSjY6kH0Yjt8PTvNk5gp-104" value="" style="endArrow=none;html=1;rounded=0;entryX=0;entryY=0.5;entryDx=0;entryDy=0;exitX=1;exitY=0.5;exitDx=0;exitDy=0;" parent="1" source="bSjY6kH0Yjt8PTvNk5gp-10" target="bSjY6kH0Yjt8PTvNk5gp-101" edge="1">
                    <mxGeometry relative="1" as="geometry">
                        <mxPoint x="-80" y="420" as="sourcePoint"/>
                        <mxPoint y="420" as="targetPoint"/>
                    </mxGeometry>
                </mxCell>
                <mxCell id="bSjY6kH0Yjt8PTvNk5gp-105" value="N" style="resizable=0;html=1;align=left;verticalAlign=bottom;" parent="bSjY6kH0Yjt8PTvNk5gp-104" connectable="0" vertex="1">
                    <mxGeometry x="-1" relative="1" as="geometry"/>
                </mxCell>
                <mxCell id="bSjY6kH0Yjt8PTvNk5gp-107" value="" style="endArrow=none;html=1;rounded=0;exitX=1;exitY=0.5;exitDx=0;exitDy=0;entryX=0;entryY=0.75;entryDx=0;entryDy=0;" parent="1" source="bSjY6kH0Yjt8PTvNk5gp-101" target="bSjY6kH0Yjt8PTvNk5gp-6" edge="1">
                    <mxGeometry relative="1" as="geometry">
                        <mxPoint x="150" y="430" as="sourcePoint"/>
                        <mxPoint x="310" y="430" as="targetPoint"/>
                    </mxGeometry>
                </mxCell>
                <mxCell id="bSjY6kH0Yjt8PTvNk5gp-108" value="1" style="resizable=0;html=1;align=right;verticalAlign=bottom;" parent="bSjY6kH0Yjt8PTvNk5gp-107" connectable="0" vertex="1">
                    <mxGeometry x="1" relative="1" as="geometry"/>
                </mxCell>
                <mxCell id="bSjY6kH0Yjt8PTvNk5gp-110" value="place" style="shape=rhombus;perimeter=rhombusPerimeter;whiteSpace=wrap;html=1;align=center;" parent="1" vertex="1">
                    <mxGeometry x="-200" y="543.67" width="120" height="60" as="geometry"/>
                </mxCell>
                <mxCell id="bSjY6kH0Yjt8PTvNk5gp-112" value="" style="endArrow=none;html=1;rounded=0;exitX=0.5;exitY=1;exitDx=0;exitDy=0;entryX=0.5;entryY=0;entryDx=0;entryDy=0;" parent="1" source="bSjY6kH0Yjt8PTvNk5gp-110" target="bSjY6kH0Yjt8PTvNk5gp-7" edge="1">
                    <mxGeometry relative="1" as="geometry">
                        <mxPoint x="-50" y="593.67" as="sourcePoint"/>
                        <mxPoint x="110" y="593.67" as="targetPoint"/>
                    </mxGeometry>
                </mxCell>
                <mxCell id="bSjY6kH0Yjt8PTvNk5gp-113" value="1" style="resizable=0;html=1;align=right;verticalAlign=bottom;" parent="bSjY6kH0Yjt8PTvNk5gp-112" connectable="0" vertex="1">
                    <mxGeometry x="1" relative="1" as="geometry">
                        <mxPoint x="10" as="offset"/>
                    </mxGeometry>
                </mxCell>
                <mxCell id="bSjY6kH0Yjt8PTvNk5gp-114" value="" style="endArrow=none;html=1;rounded=0;entryX=0.5;entryY=1;entryDx=0;entryDy=0;exitX=0.5;exitY=0;exitDx=0;exitDy=0;" parent="1" source="bSjY6kH0Yjt8PTvNk5gp-110" target="bSjY6kH0Yjt8PTvNk5gp-10" edge="1">
                    <mxGeometry relative="1" as="geometry">
                        <mxPoint x="-290" y="460" as="sourcePoint"/>
                        <mxPoint x="-130" y="460" as="targetPoint"/>
                    </mxGeometry>
                </mxCell>
                <mxCell id="bSjY6kH0Yjt8PTvNk5gp-115" value="1...N" style="resizable=0;html=1;align=right;verticalAlign=bottom;" parent="bSjY6kH0Yjt8PTvNk5gp-114" connectable="0" vertex="1">
                    <mxGeometry x="1" relative="1" as="geometry">
                        <mxPoint x="30" y="18" as="offset"/>
                    </mxGeometry>
                </mxCell>
                <mxCell id="bSjY6kH0Yjt8PTvNk5gp-117" style="rounded=0;orthogonalLoop=1;jettySize=auto;html=1;entryX=0.75;entryY=0;entryDx=0;entryDy=0;endArrow=none;endFill=0;exitX=0.304;exitY=0.935;exitDx=0;exitDy=0;exitPerimeter=0;" parent="1" source="bSjY6kH0Yjt8PTvNk5gp-116" target="bSjY6kH0Yjt8PTvNk5gp-10" edge="1">
                    <mxGeometry relative="1" as="geometry"/>
                </mxCell>
                <mxCell id="bSjY6kH0Yjt8PTvNk5gp-116" value="&lt;span style=&quot;border-bottom: 1px dotted&quot;&gt;Book_ID&lt;/span&gt;" style="ellipse;whiteSpace=wrap;html=1;align=center;" parent="1" vertex="1">
                    <mxGeometry x="-90" y="290" width="100" height="40" as="geometry"/>
                </mxCell>
                <mxCell id="bSjY6kH0Yjt8PTvNk5gp-119" style="edgeStyle=none;rounded=0;orthogonalLoop=1;jettySize=auto;html=1;exitX=0.5;exitY=1;exitDx=0;exitDy=0;entryX=0.5;entryY=0;entryDx=0;entryDy=0;endArrow=none;endFill=0;" parent="1" source="bSjY6kH0Yjt8PTvNk5gp-118" target="bSjY6kH0Yjt8PTvNk5gp-10" edge="1">
                    <mxGeometry relative="1" as="geometry"/>
                </mxCell>
                <mxCell id="bSjY6kH0Yjt8PTvNk5gp-118" value="&lt;span style=&quot;border-bottom: 1px dotted&quot;&gt;Borrower_ID&lt;/span&gt;" style="ellipse;whiteSpace=wrap;html=1;align=center;" parent="1" vertex="1">
                    <mxGeometry x="-200" y="290" width="100" height="40" as="geometry"/>
                </mxCell>
                <mxCell id="bSjY6kH0Yjt8PTvNk5gp-121" style="edgeStyle=none;rounded=0;orthogonalLoop=1;jettySize=auto;html=1;exitX=1;exitY=1;exitDx=0;exitDy=0;entryX=0.25;entryY=0;entryDx=0;entryDy=0;endArrow=none;endFill=0;" parent="1" source="bSjY6kH0Yjt8PTvNk5gp-120" target="bSjY6kH0Yjt8PTvNk5gp-10" edge="1">
                    <mxGeometry relative="1" as="geometry"/>
                </mxCell>
                <mxCell id="bSjY6kH0Yjt8PTvNk5gp-120" value="Reservation_date" style="ellipse;whiteSpace=wrap;html=1;align=center;" parent="1" vertex="1">
                    <mxGeometry x="-310" y="320" width="100" height="40" as="geometry"/>
                </mxCell>
                <mxCell id="bSjY6kH0Yjt8PTvNk5gp-123" style="edgeStyle=none;rounded=0;orthogonalLoop=1;jettySize=auto;html=1;exitX=0;exitY=1;exitDx=0;exitDy=0;entryX=1;entryY=0;entryDx=0;entryDy=0;endArrow=none;endFill=0;" parent="1" source="bSjY6kH0Yjt8PTvNk5gp-122" target="bSjY6kH0Yjt8PTvNk5gp-10" edge="1">
                    <mxGeometry relative="1" as="geometry"/>
                </mxCell>
                <mxCell id="bSjY6kH0Yjt8PTvNk5gp-122" value="Reservation_ID" style="ellipse;whiteSpace=wrap;html=1;align=center;fontStyle=4" parent="1" vertex="1">
                    <mxGeometry x="-60" y="340" width="100" height="40" as="geometry"/>
                </mxCell>
                <mxCell id="bSjY6kH0Yjt8PTvNk5gp-126" style="edgeStyle=none;rounded=0;orthogonalLoop=1;jettySize=auto;html=1;exitX=1;exitY=0.5;exitDx=0;exitDy=0;entryX=0;entryY=0.5;entryDx=0;entryDy=0;endArrow=none;endFill=0;" parent="1" source="Q7LSnnGv4zC_KHV4gUv7-1" target="bSjY6kH0Yjt8PTvNk5gp-7" edge="1">
                    <mxGeometry relative="1" as="geometry">
                        <mxPoint x="-270" y="653.6700000000001" as="sourcePoint"/>
                    </mxGeometry>
                </mxCell>
                <mxCell id="bSjY6kH0Yjt8PTvNk5gp-127" value="Publishers" style="whiteSpace=wrap;html=1;align=center;" parent="1" vertex="1">
                    <mxGeometry x="240" y="200" width="100" height="40" as="geometry"/>
                </mxCell>
                <mxCell id="bSjY6kH0Yjt8PTvNk5gp-128" value="publish" style="shape=rhombus;perimeter=rhombusPerimeter;whiteSpace=wrap;html=1;align=center;" parent="1" vertex="1">
                    <mxGeometry x="230" y="290" width="120" height="60" as="geometry"/>
                </mxCell>
                <mxCell id="bSjY6kH0Yjt8PTvNk5gp-129" value="" style="endArrow=none;html=1;rounded=0;entryX=0.5;entryY=0;entryDx=0;entryDy=0;exitX=0.5;exitY=1;exitDx=0;exitDy=0;" parent="1" source="bSjY6kH0Yjt8PTvNk5gp-128" target="bSjY6kH0Yjt8PTvNk5gp-6" edge="1">
                    <mxGeometry relative="1" as="geometry">
                        <mxPoint x="180" y="370" as="sourcePoint"/>
                        <mxPoint x="340" y="370" as="targetPoint"/>
                    </mxGeometry>
                </mxCell>
                <mxCell id="bSjY6kH0Yjt8PTvNk5gp-130" value="N" style="resizable=0;html=1;align=right;verticalAlign=bottom;" parent="bSjY6kH0Yjt8PTvNk5gp-129" connectable="0" vertex="1">
                    <mxGeometry x="1" relative="1" as="geometry">
                        <mxPoint x="10" as="offset"/>
                    </mxGeometry>
                </mxCell>
                <mxCell id="bSjY6kH0Yjt8PTvNk5gp-131" value="" style="endArrow=none;html=1;rounded=0;entryX=0.5;entryY=1;entryDx=0;entryDy=0;exitX=0.5;exitY=0;exitDx=0;exitDy=0;" parent="1" source="bSjY6kH0Yjt8PTvNk5gp-128" target="bSjY6kH0Yjt8PTvNk5gp-127" edge="1">
                    <mxGeometry relative="1" as="geometry">
                        <mxPoint x="300" y="280" as="sourcePoint"/>
                        <mxPoint x="290" y="260" as="targetPoint"/>
                    </mxGeometry>
                </mxCell>
                <mxCell id="bSjY6kH0Yjt8PTvNk5gp-132" value="1" style="resizable=0;html=1;align=right;verticalAlign=top;" parent="bSjY6kH0Yjt8PTvNk5gp-131" connectable="0" vertex="1">
                    <mxGeometry x="1" relative="1" as="geometry">
                        <mxPoint x="10" y="-6" as="offset"/>
                    </mxGeometry>
                </mxCell>
                <mxCell id="bSjY6kH0Yjt8PTvNk5gp-134" style="edgeStyle=none;rounded=0;orthogonalLoop=1;jettySize=auto;html=1;exitX=0.5;exitY=1;exitDx=0;exitDy=0;entryX=0.75;entryY=0;entryDx=0;entryDy=0;endArrow=none;endFill=0;" parent="1" source="bSjY6kH0Yjt8PTvNk5gp-133" target="bSjY6kH0Yjt8PTvNk5gp-127" edge="1">
                    <mxGeometry relative="1" as="geometry"/>
                </mxCell>
                <mxCell id="bSjY6kH0Yjt8PTvNk5gp-133" value="Publisher_ID" style="ellipse;whiteSpace=wrap;html=1;align=center;fontStyle=4" parent="1" vertex="1">
                    <mxGeometry x="325" y="120" width="100" height="40" as="geometry"/>
                </mxCell>
                <mxCell id="bSjY6kH0Yjt8PTvNk5gp-137" style="edgeStyle=none;rounded=0;orthogonalLoop=1;jettySize=auto;html=1;exitX=0.5;exitY=1;exitDx=0;exitDy=0;entryX=0.25;entryY=0;entryDx=0;entryDy=0;endArrow=none;endFill=0;" parent="1" source="bSjY6kH0Yjt8PTvNk5gp-136" target="bSjY6kH0Yjt8PTvNk5gp-127" edge="1">
                    <mxGeometry relative="1" as="geometry"/>
                </mxCell>
                <mxCell id="bSjY6kH0Yjt8PTvNk5gp-136" value="Name" style="ellipse;whiteSpace=wrap;html=1;align=center;" parent="1" vertex="1">
                    <mxGeometry x="190" y="120" width="100" height="40" as="geometry"/>
                </mxCell>
                <mxCell id="bSjY6kH0Yjt8PTvNk5gp-139" style="edgeStyle=none;rounded=0;orthogonalLoop=1;jettySize=auto;html=1;exitX=0.5;exitY=1;exitDx=0;exitDy=0;endArrow=none;endFill=0;" parent="1" source="Q7LSnnGv4zC_KHV4gUv7-2" edge="1">
                    <mxGeometry relative="1" as="geometry">
                        <mxPoint x="290" y="200" as="targetPoint"/>
                        <mxPoint x="310" y="110" as="sourcePoint"/>
                    </mxGeometry>
                </mxCell>
                <mxCell id="bSjY6kH0Yjt8PTvNk5gp-142" value="store" style="shape=rhombus;perimeter=rhombusPerimeter;whiteSpace=wrap;html=1;align=center;" parent="1" vertex="1">
                    <mxGeometry x="500" y="390" width="120" height="60" as="geometry"/>
                </mxCell>
                <mxCell id="bSjY6kH0Yjt8PTvNk5gp-143" value="" style="endArrow=none;html=1;rounded=0;entryX=0;entryY=0.5;entryDx=0;entryDy=0;exitX=1;exitY=0.75;exitDx=0;exitDy=0;" parent="1" source="bSjY6kH0Yjt8PTvNk5gp-6" target="bSjY6kH0Yjt8PTvNk5gp-142" edge="1">
                    <mxGeometry relative="1" as="geometry">
                        <mxPoint x="360" y="420" as="sourcePoint"/>
                        <mxPoint x="470" y="420" as="targetPoint"/>
                    </mxGeometry>
                </mxCell>
                <mxCell id="bSjY6kH0Yjt8PTvNk5gp-144" value="N" style="resizable=0;html=1;align=left;verticalAlign=bottom;" parent="bSjY6kH0Yjt8PTvNk5gp-143" connectable="0" vertex="1">
                    <mxGeometry x="-1" relative="1" as="geometry"/>
                </mxCell>
                <mxCell id="bSjY6kH0Yjt8PTvNk5gp-146" value="" style="endArrow=none;html=1;rounded=0;exitX=1;exitY=0.5;exitDx=0;exitDy=0;entryX=0;entryY=0.5;entryDx=0;entryDy=0;" parent="1" source="bSjY6kH0Yjt8PTvNk5gp-142" target="bSjY6kH0Yjt8PTvNk5gp-8" edge="1">
                    <mxGeometry relative="1" as="geometry">
                        <mxPoint x="630" y="480" as="sourcePoint"/>
                        <mxPoint x="790" y="480" as="targetPoint"/>
                    </mxGeometry>
                </mxCell>
                <mxCell id="bSjY6kH0Yjt8PTvNk5gp-147" value="1" style="resizable=0;html=1;align=right;verticalAlign=bottom;" parent="bSjY6kH0Yjt8PTvNk5gp-146" connectable="0" vertex="1">
                    <mxGeometry x="1" relative="1" as="geometry"/>
                </mxCell>
                <mxCell id="bSjY6kH0Yjt8PTvNk5gp-150" style="edgeStyle=none;rounded=0;orthogonalLoop=1;jettySize=auto;html=1;exitX=1;exitY=0;exitDx=0;exitDy=0;entryX=0.132;entryY=1.013;entryDx=0;entryDy=0;entryPerimeter=0;endArrow=none;endFill=0;" parent="1" source="bSjY6kH0Yjt8PTvNk5gp-149" target="bSjY6kH0Yjt8PTvNk5gp-8" edge="1">
                    <mxGeometry relative="1" as="geometry"/>
                </mxCell>
                <mxCell id="bSjY6kH0Yjt8PTvNk5gp-149" value="Branch_ID" style="ellipse;whiteSpace=wrap;html=1;align=center;fontStyle=4" parent="1" vertex="1">
                    <mxGeometry x="630" y="480" width="100" height="40" as="geometry"/>
                </mxCell>
                <mxCell id="bSjY6kH0Yjt8PTvNk5gp-154" style="edgeStyle=none;rounded=0;orthogonalLoop=1;jettySize=auto;html=1;exitX=0.5;exitY=0;exitDx=0;exitDy=0;entryX=0.635;entryY=1.03;entryDx=0;entryDy=0;entryPerimeter=0;endArrow=none;endFill=0;" parent="1" source="bSjY6kH0Yjt8PTvNk5gp-151" target="bSjY6kH0Yjt8PTvNk5gp-8" edge="1">
                    <mxGeometry relative="1" as="geometry"/>
                </mxCell>
                <mxCell id="bSjY6kH0Yjt8PTvNk5gp-151" value="Name" style="ellipse;whiteSpace=wrap;html=1;align=center;" parent="1" vertex="1">
                    <mxGeometry x="770" y="490" width="100" height="40" as="geometry"/>
                </mxCell>
                <mxCell id="bSjY6kH0Yjt8PTvNk5gp-153" style="edgeStyle=none;rounded=0;orthogonalLoop=1;jettySize=auto;html=1;exitX=0;exitY=0.5;exitDx=0;exitDy=0;entryX=1;entryY=0.5;entryDx=0;entryDy=0;endArrow=none;endFill=0;" parent="1" source="bSjY6kH0Yjt8PTvNk5gp-152" target="bSjY6kH0Yjt8PTvNk5gp-8" edge="1">
                    <mxGeometry relative="1" as="geometry"/>
                </mxCell>
                <mxCell id="bSjY6kH0Yjt8PTvNk5gp-152" value="Address" style="ellipse;whiteSpace=wrap;html=1;align=center;" parent="1" vertex="1">
                    <mxGeometry x="870" y="420" width="100" height="40" as="geometry"/>
                </mxCell>
                <mxCell id="bSjY6kH0Yjt8PTvNk5gp-155" value="work" style="shape=rhombus;perimeter=rhombusPerimeter;whiteSpace=wrap;html=1;align=center;" parent="1" vertex="1">
                    <mxGeometry x="720" y="280" width="120" height="60" as="geometry"/>
                </mxCell>
                <mxCell id="bSjY6kH0Yjt8PTvNk5gp-157" value="" style="endArrow=none;html=1;rounded=0;exitX=0.5;exitY=1;exitDx=0;exitDy=0;entryX=0.5;entryY=0;entryDx=0;entryDy=0;" parent="1" source="bSjY6kH0Yjt8PTvNk5gp-155" target="bSjY6kH0Yjt8PTvNk5gp-8" edge="1">
                    <mxGeometry relative="1" as="geometry">
                        <mxPoint x="890" y="360" as="sourcePoint"/>
                        <mxPoint x="1050" y="360" as="targetPoint"/>
                    </mxGeometry>
                </mxCell>
                <mxCell id="bSjY6kH0Yjt8PTvNk5gp-158" value="N" style="resizable=0;html=1;align=right;verticalAlign=bottom;" parent="bSjY6kH0Yjt8PTvNk5gp-157" connectable="0" vertex="1">
                    <mxGeometry x="1" relative="1" as="geometry">
                        <mxPoint x="10" as="offset"/>
                    </mxGeometry>
                </mxCell>
                <mxCell id="bSjY6kH0Yjt8PTvNk5gp-159" value="" style="endArrow=none;html=1;rounded=0;entryX=0.5;entryY=1;entryDx=0;entryDy=0;exitX=0.5;exitY=0;exitDx=0;exitDy=0;" parent="1" source="bSjY6kH0Yjt8PTvNk5gp-155" target="bSjY6kH0Yjt8PTvNk5gp-5" edge="1">
                    <mxGeometry relative="1" as="geometry">
                        <mxPoint x="930" y="280" as="sourcePoint"/>
                        <mxPoint x="1090" y="280" as="targetPoint"/>
                    </mxGeometry>
                </mxCell>
                <mxCell id="bSjY6kH0Yjt8PTvNk5gp-160" value="1" style="resizable=0;html=1;align=right;verticalAlign=bottom;" parent="bSjY6kH0Yjt8PTvNk5gp-159" connectable="0" vertex="1">
                    <mxGeometry x="1" relative="1" as="geometry">
                        <mxPoint x="10" y="18" as="offset"/>
                    </mxGeometry>
                </mxCell>
                <mxCell id="bSjY6kH0Yjt8PTvNk5gp-161" value="&lt;span style=&quot;border-bottom: 1px dotted&quot;&gt;Librarian_ID&lt;/span&gt;" style="ellipse;whiteSpace=wrap;html=1;align=center;" parent="1" vertex="1">
                    <mxGeometry x="860" y="360" width="100" height="40" as="geometry"/>
                </mxCell>
                <mxCell id="bSjY6kH0Yjt8PTvNk5gp-164" style="edgeStyle=none;rounded=0;orthogonalLoop=1;jettySize=auto;html=1;exitX=0;exitY=0.5;exitDx=0;exitDy=0;entryX=1;entryY=0.5;entryDx=0;entryDy=0;endArrow=none;endFill=0;" parent="1" source="bSjY6kH0Yjt8PTvNk5gp-163" target="bSjY6kH0Yjt8PTvNk5gp-5" edge="1">
                    <mxGeometry relative="1" as="geometry"/>
                </mxCell>
                <mxCell id="bSjY6kH0Yjt8PTvNk5gp-163" value="Librarian_ID" style="ellipse;whiteSpace=wrap;html=1;align=center;fontStyle=4" parent="1" vertex="1">
                    <mxGeometry x="910" y="170" width="100" height="40" as="geometry"/>
                </mxCell>
                <mxCell id="bSjY6kH0Yjt8PTvNk5gp-166" style="edgeStyle=none;rounded=0;orthogonalLoop=1;jettySize=auto;html=1;exitX=0.5;exitY=1;exitDx=0;exitDy=0;entryX=0.25;entryY=0;entryDx=0;entryDy=0;endArrow=none;endFill=0;" parent="1" source="bSjY6kH0Yjt8PTvNk5gp-165" target="bSjY6kH0Yjt8PTvNk5gp-5" edge="1">
                    <mxGeometry relative="1" as="geometry"/>
                </mxCell>
                <mxCell id="bSjY6kH0Yjt8PTvNk5gp-165" value="First_name" style="ellipse;whiteSpace=wrap;html=1;align=center;" parent="1" vertex="1">
                    <mxGeometry x="680" y="90" width="100" height="40" as="geometry"/>
                </mxCell>
                <mxCell id="bSjY6kH0Yjt8PTvNk5gp-168" style="edgeStyle=none;rounded=0;orthogonalLoop=1;jettySize=auto;html=1;exitX=0.5;exitY=1;exitDx=0;exitDy=0;entryX=0.75;entryY=0;entryDx=0;entryDy=0;endArrow=none;endFill=0;" parent="1" source="bSjY6kH0Yjt8PTvNk5gp-167" target="bSjY6kH0Yjt8PTvNk5gp-5" edge="1">
                    <mxGeometry relative="1" as="geometry"/>
                </mxCell>
                <mxCell id="bSjY6kH0Yjt8PTvNk5gp-167" value="Last_name" style="ellipse;whiteSpace=wrap;html=1;align=center;" parent="1" vertex="1">
                    <mxGeometry x="770" y="60" width="100" height="40" as="geometry"/>
                </mxCell>
                <mxCell id="bSjY6kH0Yjt8PTvNk5gp-170" style="edgeStyle=none;rounded=0;orthogonalLoop=1;jettySize=auto;html=1;exitX=0;exitY=1;exitDx=0;exitDy=0;entryX=1;entryY=0;entryDx=0;entryDy=0;endArrow=none;endFill=0;" parent="1" source="bSjY6kH0Yjt8PTvNk5gp-169" target="bSjY6kH0Yjt8PTvNk5gp-5" edge="1">
                    <mxGeometry relative="1" as="geometry"/>
                </mxCell>
                <mxCell id="bSjY6kH0Yjt8PTvNk5gp-169" value="EMail" style="ellipse;whiteSpace=wrap;html=1;align=center;" parent="1" vertex="1">
                    <mxGeometry x="890" y="70" width="100" height="40" as="geometry"/>
                </mxCell>
                <mxCell id="bSjY6kH0Yjt8PTvNk5gp-172" style="edgeStyle=none;rounded=0;orthogonalLoop=1;jettySize=auto;html=1;exitX=0;exitY=0;exitDx=0;exitDy=0;entryX=1;entryY=1;entryDx=0;entryDy=0;endArrow=none;endFill=0;" parent="1" source="bSjY6kH0Yjt8PTvNk5gp-171" target="bSjY6kH0Yjt8PTvNk5gp-5" edge="1">
                    <mxGeometry relative="1" as="geometry"/>
                </mxCell>
                <mxCell id="bSjY6kH0Yjt8PTvNk5gp-171" value="Phone" style="ellipse;whiteSpace=wrap;html=1;align=center;" parent="1" vertex="1">
                    <mxGeometry x="880" y="230" width="100" height="40" as="geometry"/>
                </mxCell>
                <mxCell id="bSjY6kH0Yjt8PTvNk5gp-174" style="edgeStyle=none;rounded=0;orthogonalLoop=1;jettySize=auto;html=1;exitX=0;exitY=0.5;exitDx=0;exitDy=0;entryX=1;entryY=0.25;entryDx=0;entryDy=0;endArrow=none;endFill=0;" parent="1" source="Q7LSnnGv4zC_KHV4gUv7-3" target="bSjY6kH0Yjt8PTvNk5gp-5" edge="1">
                    <mxGeometry relative="1" as="geometry">
                        <mxPoint x="910" y="140" as="sourcePoint"/>
                    </mxGeometry>
                </mxCell>
                <mxCell id="bSjY6kH0Yjt8PTvNk5gp-176" style="edgeStyle=none;rounded=0;orthogonalLoop=1;jettySize=auto;html=1;exitX=0;exitY=0;exitDx=0;exitDy=0;entryX=1;entryY=1;entryDx=0;entryDy=0;endArrow=none;endFill=0;" parent="1" source="bSjY6kH0Yjt8PTvNk5gp-175" target="bSjY6kH0Yjt8PTvNk5gp-6" edge="1">
                    <mxGeometry relative="1" as="geometry"/>
                </mxCell>
                <mxCell id="bSjY6kH0Yjt8PTvNk5gp-175" value="Book_ID" style="ellipse;whiteSpace=wrap;html=1;align=center;fontStyle=4" parent="1" vertex="1">
                    <mxGeometry x="390" y="429.99999999999994" width="100" height="40" as="geometry"/>
                </mxCell>
                <mxCell id="bSjY6kH0Yjt8PTvNk5gp-178" style="edgeStyle=none;rounded=0;orthogonalLoop=1;jettySize=auto;html=1;exitX=0.5;exitY=0;exitDx=0;exitDy=0;entryX=0.75;entryY=1;entryDx=0;entryDy=0;endArrow=none;endFill=0;" parent="1" source="bSjY6kH0Yjt8PTvNk5gp-177" target="bSjY6kH0Yjt8PTvNk5gp-6" edge="1">
                    <mxGeometry relative="1" as="geometry"/>
                </mxCell>
                <mxCell id="bSjY6kH0Yjt8PTvNk5gp-177" value="&lt;span style=&quot;border-bottom: 1px dotted&quot;&gt;Author_ID&lt;/span&gt;" style="ellipse;whiteSpace=wrap;html=1;align=center;" parent="1" vertex="1">
                    <mxGeometry x="300" y="479.99999999999994" width="100" height="40" as="geometry"/>
                </mxCell>
                <mxCell id="bSjY6kH0Yjt8PTvNk5gp-180" style="edgeStyle=none;rounded=0;orthogonalLoop=1;jettySize=auto;html=1;exitX=0;exitY=0;exitDx=0;exitDy=0;entryX=0.884;entryY=1.003;entryDx=0;entryDy=0;endArrow=none;endFill=0;entryPerimeter=0;" parent="1" source="bSjY6kH0Yjt8PTvNk5gp-179" target="bSjY6kH0Yjt8PTvNk5gp-6" edge="1">
                    <mxGeometry relative="1" as="geometry"/>
                </mxCell>
                <mxCell id="bSjY6kH0Yjt8PTvNk5gp-179" value="Title" style="ellipse;whiteSpace=wrap;html=1;align=center;" parent="1" vertex="1">
                    <mxGeometry x="410" y="479.99999999999994" width="100" height="40" as="geometry"/>
                </mxCell>
                <mxCell id="bSjY6kH0Yjt8PTvNk5gp-182" style="edgeStyle=none;rounded=0;orthogonalLoop=1;jettySize=auto;html=1;entryX=0.301;entryY=1.022;entryDx=0;entryDy=0;entryPerimeter=0;endArrow=none;endFill=0;exitX=0.708;exitY=0.073;exitDx=0;exitDy=0;exitPerimeter=0;" parent="1" source="bSjY6kH0Yjt8PTvNk5gp-181" target="bSjY6kH0Yjt8PTvNk5gp-6" edge="1">
                    <mxGeometry relative="1" as="geometry"/>
                </mxCell>
                <mxCell id="bSjY6kH0Yjt8PTvNk5gp-181" value="&lt;span style=&quot;border-bottom: 1px dotted&quot;&gt;Publisher_ID&lt;/span&gt;" style="ellipse;whiteSpace=wrap;html=1;align=center;" parent="1" vertex="1">
                    <mxGeometry x="180" y="489.99999999999994" width="100" height="40" as="geometry"/>
                </mxCell>
                <mxCell id="bSjY6kH0Yjt8PTvNk5gp-184" style="edgeStyle=none;rounded=0;orthogonalLoop=1;jettySize=auto;html=1;exitX=1;exitY=0;exitDx=0;exitDy=0;endArrow=none;endFill=0;" parent="1" source="bSjY6kH0Yjt8PTvNk5gp-183" edge="1">
                    <mxGeometry relative="1" as="geometry">
                        <mxPoint x="240" y="430" as="targetPoint"/>
                    </mxGeometry>
                </mxCell>
                <mxCell id="bSjY6kH0Yjt8PTvNk5gp-183" value="&lt;span style=&quot;border-bottom: 1px dotted&quot;&gt;Branch_ID&lt;/span&gt;" style="ellipse;whiteSpace=wrap;html=1;align=center;" parent="1" vertex="1">
                    <mxGeometry x="90" y="439.99999999999994" width="100" height="40" as="geometry"/>
                </mxCell>
                <mxCell id="bSjY6kH0Yjt8PTvNk5gp-186" style="edgeStyle=none;rounded=0;orthogonalLoop=1;jettySize=auto;html=1;exitX=1;exitY=0;exitDx=0;exitDy=0;entryX=0.183;entryY=1.007;entryDx=0;entryDy=0;entryPerimeter=0;endArrow=none;endFill=0;" parent="1" source="bSjY6kH0Yjt8PTvNk5gp-185" target="bSjY6kH0Yjt8PTvNk5gp-6" edge="1">
                    <mxGeometry relative="1" as="geometry"/>
                </mxCell>
                <mxCell id="bSjY6kH0Yjt8PTvNk5gp-185" value="&lt;span style=&quot;border-bottom: 1px dotted&quot;&gt;Genre_ID&lt;/span&gt;" style="ellipse;whiteSpace=wrap;html=1;align=center;" parent="1" vertex="1">
                    <mxGeometry x="70" y="499.99999999999994" width="100" height="40" as="geometry"/>
                </mxCell>
                <mxCell id="bSjY6kH0Yjt8PTvNk5gp-188" style="edgeStyle=none;rounded=0;orthogonalLoop=1;jettySize=auto;html=1;exitX=0;exitY=1;exitDx=0;exitDy=0;entryX=0.75;entryY=0;entryDx=0;entryDy=0;endArrow=none;endFill=0;" parent="1" source="bSjY6kH0Yjt8PTvNk5gp-187" target="bSjY6kH0Yjt8PTvNk5gp-6" edge="1">
                    <mxGeometry relative="1" as="geometry"/>
                </mxCell>
                <mxCell id="bSjY6kH0Yjt8PTvNk5gp-187" value="Publish_year" style="ellipse;whiteSpace=wrap;html=1;align=center;" parent="1" vertex="1">
                    <mxGeometry x="330" y="339.99999999999994" width="100" height="40" as="geometry"/>
                </mxCell>
                <mxCell id="bSjY6kH0Yjt8PTvNk5gp-190" style="edgeStyle=none;rounded=0;orthogonalLoop=1;jettySize=auto;html=1;exitX=1;exitY=1;exitDx=0;exitDy=0;entryX=0.25;entryY=0;entryDx=0;entryDy=0;endArrow=none;endFill=0;" parent="1" source="bSjY6kH0Yjt8PTvNk5gp-189" target="bSjY6kH0Yjt8PTvNk5gp-6" edge="1">
                    <mxGeometry relative="1" as="geometry"/>
                </mxCell>
                <mxCell id="bSjY6kH0Yjt8PTvNk5gp-189" value="ISBN" style="ellipse;whiteSpace=wrap;html=1;align=center;" parent="1" vertex="1">
                    <mxGeometry x="160" y="339.99999999999994" width="100" height="40" as="geometry"/>
                </mxCell>
                <mxCell id="Q7LSnnGv4zC_KHV4gUv7-1" value="Address" style="ellipse;shape=doubleEllipse;margin=3;whiteSpace=wrap;html=1;align=center;" parent="1" vertex="1">
                    <mxGeometry x="-370" y="629.67" width="100" height="40" as="geometry"/>
                </mxCell>
                <mxCell id="Q7LSnnGv4zC_KHV4gUv7-2" value="Address" style="ellipse;shape=doubleEllipse;margin=3;whiteSpace=wrap;html=1;align=center;" parent="1" vertex="1">
                    <mxGeometry x="260" y="70" width="100" height="40" as="geometry"/>
                </mxCell>
                <mxCell id="Q7LSnnGv4zC_KHV4gUv7-3" value="Address" style="ellipse;shape=doubleEllipse;margin=3;whiteSpace=wrap;html=1;align=center;" parent="1" vertex="1">
                    <mxGeometry x="910" y="119.99999999999994" width="100" height="40" as="geometry"/>
                </mxCell>
                <mxCell id="Q7LSnnGv4zC_KHV4gUv7-6" value="Street" style="ellipse;whiteSpace=wrap;html=1;align=center;" parent="1" vertex="1">
                    <mxGeometry x="1040" y="70" width="100" height="40" as="geometry"/>
                </mxCell>
                <mxCell id="Q7LSnnGv4zC_KHV4gUv7-7" style="rounded=0;orthogonalLoop=1;jettySize=auto;html=1;exitX=0;exitY=1;exitDx=0;exitDy=0;entryX=1;entryY=0;entryDx=0;entryDy=0;endArrow=none;endFill=0;" parent="1" source="Q7LSnnGv4zC_KHV4gUv7-6" target="Q7LSnnGv4zC_KHV4gUv7-3" edge="1">
                    <mxGeometry relative="1" as="geometry"/>
                </mxCell>
                <mxCell id="Q7LSnnGv4zC_KHV4gUv7-9" style="edgeStyle=none;rounded=0;orthogonalLoop=1;jettySize=auto;html=1;exitX=0;exitY=0.5;exitDx=0;exitDy=0;entryX=1;entryY=0.5;entryDx=0;entryDy=0;endArrow=none;endFill=0;" parent="1" source="Q7LSnnGv4zC_KHV4gUv7-8" target="Q7LSnnGv4zC_KHV4gUv7-3" edge="1">
                    <mxGeometry relative="1" as="geometry"/>
                </mxCell>
                <mxCell id="Q7LSnnGv4zC_KHV4gUv7-8" value="Number" style="ellipse;whiteSpace=wrap;html=1;align=center;" parent="1" vertex="1">
                    <mxGeometry x="1100" y="110" width="100" height="40" as="geometry"/>
                </mxCell>
                <mxCell id="Q7LSnnGv4zC_KHV4gUv7-12" style="edgeStyle=none;rounded=0;orthogonalLoop=1;jettySize=auto;html=1;exitX=0;exitY=0.5;exitDx=0;exitDy=0;endArrow=none;endFill=0;" parent="1" source="Q7LSnnGv4zC_KHV4gUv7-11" target="Q7LSnnGv4zC_KHV4gUv7-3" edge="1">
                    <mxGeometry relative="1" as="geometry"/>
                </mxCell>
                <mxCell id="Q7LSnnGv4zC_KHV4gUv7-11" value="City" style="ellipse;whiteSpace=wrap;html=1;align=center;" parent="1" vertex="1">
                    <mxGeometry x="1080" y="160" width="100" height="40" as="geometry"/>
                </mxCell>
                <mxCell id="Q7LSnnGv4zC_KHV4gUv7-16" style="edgeStyle=none;rounded=0;orthogonalLoop=1;jettySize=auto;html=1;exitX=1;exitY=1;exitDx=0;exitDy=0;entryX=0.226;entryY=0.07;entryDx=0;entryDy=0;entryPerimeter=0;endArrow=none;endFill=0;" parent="1" source="Q7LSnnGv4zC_KHV4gUv7-13" target="Q7LSnnGv4zC_KHV4gUv7-2" edge="1">
                    <mxGeometry relative="1" as="geometry"/>
                </mxCell>
                <mxCell id="Q7LSnnGv4zC_KHV4gUv7-13" value="Street" style="ellipse;whiteSpace=wrap;html=1;align=center;" parent="1" vertex="1">
                    <mxGeometry x="180" y="20" width="100" height="40" as="geometry"/>
                </mxCell>
                <mxCell id="Q7LSnnGv4zC_KHV4gUv7-17" style="edgeStyle=none;rounded=0;orthogonalLoop=1;jettySize=auto;html=1;exitX=0.5;exitY=1;exitDx=0;exitDy=0;entryX=0.5;entryY=0;entryDx=0;entryDy=0;endArrow=none;endFill=0;" parent="1" source="Q7LSnnGv4zC_KHV4gUv7-14" target="Q7LSnnGv4zC_KHV4gUv7-2" edge="1">
                    <mxGeometry relative="1" as="geometry"/>
                </mxCell>
                <mxCell id="Q7LSnnGv4zC_KHV4gUv7-14" value="Number" style="ellipse;whiteSpace=wrap;html=1;align=center;" parent="1" vertex="1">
                    <mxGeometry x="270" y="-20" width="100" height="40" as="geometry"/>
                </mxCell>
                <mxCell id="Q7LSnnGv4zC_KHV4gUv7-18" style="edgeStyle=none;rounded=0;orthogonalLoop=1;jettySize=auto;html=1;exitX=0;exitY=1;exitDx=0;exitDy=0;entryX=0.918;entryY=0.2;entryDx=0;entryDy=0;entryPerimeter=0;endArrow=none;endFill=0;" parent="1" source="Q7LSnnGv4zC_KHV4gUv7-15" target="Q7LSnnGv4zC_KHV4gUv7-2" edge="1">
                    <mxGeometry relative="1" as="geometry"/>
                </mxCell>
                <mxCell id="Q7LSnnGv4zC_KHV4gUv7-15" value="City" style="ellipse;whiteSpace=wrap;html=1;align=center;" parent="1" vertex="1">
                    <mxGeometry x="350" y="30" width="100" height="40" as="geometry"/>
                </mxCell>
                <mxCell id="Q7LSnnGv4zC_KHV4gUv7-23" style="edgeStyle=none;rounded=0;orthogonalLoop=1;jettySize=auto;html=1;exitX=1;exitY=0.5;exitDx=0;exitDy=0;entryX=0;entryY=0.5;entryDx=0;entryDy=0;endArrow=none;endFill=0;" parent="1" source="Q7LSnnGv4zC_KHV4gUv7-19" target="Q7LSnnGv4zC_KHV4gUv7-1" edge="1">
                    <mxGeometry relative="1" as="geometry"/>
                </mxCell>
                <mxCell id="Q7LSnnGv4zC_KHV4gUv7-19" value="Street" style="ellipse;whiteSpace=wrap;html=1;align=center;" parent="1" vertex="1">
                    <mxGeometry x="-530" y="629.67" width="100" height="40" as="geometry"/>
                </mxCell>
                <mxCell id="Q7LSnnGv4zC_KHV4gUv7-24" style="edgeStyle=none;rounded=0;orthogonalLoop=1;jettySize=auto;html=1;exitX=1;exitY=1;exitDx=0;exitDy=0;endArrow=none;endFill=0;" parent="1" source="Q7LSnnGv4zC_KHV4gUv7-20" target="Q7LSnnGv4zC_KHV4gUv7-1" edge="1">
                    <mxGeometry relative="1" as="geometry"/>
                </mxCell>
                <mxCell id="Q7LSnnGv4zC_KHV4gUv7-20" value="Number" style="ellipse;whiteSpace=wrap;html=1;align=center;" parent="1" vertex="1">
                    <mxGeometry x="-480" y="570" width="100" height="40" as="geometry"/>
                </mxCell>
                <mxCell id="Q7LSnnGv4zC_KHV4gUv7-22" style="edgeStyle=none;rounded=0;orthogonalLoop=1;jettySize=auto;html=1;exitX=1;exitY=0;exitDx=0;exitDy=0;entryX=0;entryY=1;entryDx=0;entryDy=0;endArrow=none;endFill=0;" parent="1" source="Q7LSnnGv4zC_KHV4gUv7-21" target="Q7LSnnGv4zC_KHV4gUv7-1" edge="1">
                    <mxGeometry relative="1" as="geometry"/>
                </mxCell>
                <mxCell id="Q7LSnnGv4zC_KHV4gUv7-21" value="City" style="ellipse;whiteSpace=wrap;html=1;align=center;" parent="1" vertex="1">
                    <mxGeometry x="-500" y="689.67" width="100" height="40" as="geometry"/>
                </mxCell>
                <mxCell id="Q7LSnnGv4zC_KHV4gUv7-25" value="loan" style="shape=rhombus;perimeter=rhombusPerimeter;whiteSpace=wrap;html=1;align=center;" parent="1" vertex="1">
                    <mxGeometry x="230" y="530" width="120" height="60" as="geometry"/>
                </mxCell>
                <mxCell id="Q7LSnnGv4zC_KHV4gUv7-26" value="" style="endArrow=none;html=1;rounded=0;exitX=0.5;exitY=1;exitDx=0;exitDy=0;entryX=0.5;entryY=0;entryDx=0;entryDy=0;" parent="1" source="bSjY6kH0Yjt8PTvNk5gp-6" target="Q7LSnnGv4zC_KHV4gUv7-25" edge="1">
                    <mxGeometry relative="1" as="geometry">
                        <mxPoint x="290" y="430" as="sourcePoint"/>
                        <mxPoint x="290" y="633.6700000000001" as="targetPoint"/>
                    </mxGeometry>
                </mxCell>
            </root>
        </mxGraphModel>
    </diagram>
</mxfile>